<svg width="73" height="14" viewBox="0 0 73 14" fill="none" xmlns="http://www.w3.org/2000/svg">
<path d="M3.01388 13.2072C1.35712 13.2072 0 11.8355 0 10.1648V0.22862C0 0.105517 0.10575 0 0.229125 0H1.65675V10.3231C1.65675 11.0793 2.27362 11.6948 3.01388 11.6948H8.51288C8.63625 11.6948 8.742 11.8003 8.742 11.9234V13.2072H3.01388ZM10.7513 13.2072C10.6279 13.2072 10.5221 13.1017 10.5221 12.9786V0H11.9498C12.0731 0 12.1789 0.105517 12.1789 0.22862V13.2072H10.7513ZM15.651 13.2072C15.087 13.2072 14.6287 12.75 14.6287 12.1872V0.984826C14.6287 0.439654 15.0694 0 15.6157 0H15.8977H21.2557C22.9125 0 24.252 1.33655 24.252 2.98965V4.3262C24.252 5.17033 23.5822 6.29585 22.6305 6.4893C23.5822 6.7355 24.252 7.80826 24.252 8.6524V10.2C24.252 11.8531 22.9125 13.2072 21.2557 13.2072H15.651ZM22.5952 10.3407V8.58205C22.5952 7.84343 21.996 7.2455 21.2557 7.2455H16.2855V11.3607C16.2855 11.5365 16.4265 11.6948 16.6204 11.6948H21.2557C21.996 11.6948 22.5952 11.0793 22.5952 10.3407ZM16.2855 1.84655V5.73309H21.2557C21.996 5.73309 22.5952 5.13516 22.5952 4.39654V2.84896C22.5952 2.11034 21.996 1.51241 21.2557 1.51241H16.6204C16.4265 1.51241 16.2855 1.6531 16.2855 1.84655ZM27.9356 6.87619H27.9004V12.9786C27.9004 13.1017 27.7946 13.2072 27.6712 13.2072H26.2436V1.02C26.2436 0.45724 26.7019 0 27.2659 0H32.8001C34.4569 0 35.7964 1.03758 35.7964 2.83137V4.53723C35.7964 6.08482 34.686 6.92895 33.3994 7.26309L36.2194 13.2072H34.686C34.5626 13.2072 34.4216 13.1017 34.3688 12.9962L31.6898 7.35102H29.4337H28.9226C28.4291 7.35102 28.059 7.21033 27.9356 6.87619ZM28.2353 5.83861H32.8001C33.5404 5.83861 34.1396 5.24068 34.1396 4.50206V2.84896C34.1396 2.11034 33.5404 1.51241 32.8001 1.51241H28.2353C28.0414 1.51241 27.9004 1.67069 27.9004 1.84655V5.50447C27.9004 5.69792 28.059 5.83861 28.2353 5.83861ZM44.8027 0.123103L49.4205 13.2072H47.9753C47.8166 13.2072 47.6932 13.1017 47.658 12.9786L46.4771 9.58446H39.7444L38.5635 12.9786C38.5282 13.1017 38.3872 13.2072 38.2463 13.2072H36.801L41.1015 0.984826C41.313 0.404482 41.8594 0 42.4939 0H44.5913C44.6794 0 44.7675 0.0527584 44.8027 0.123103ZM40.2731 8.07205H45.9484L43.6571 1.51241H42.7935C42.6525 1.51241 42.5291 1.60034 42.4763 1.74103L40.2731 8.07205ZM52.4872 6.87619H52.452V12.9786C52.452 13.1017 52.3462 13.2072 52.2229 13.2072H50.7952V1.02C50.7952 0.45724 51.2535 0 51.8175 0H57.3518C59.0085 0 60.348 1.03758 60.348 2.83137V4.53723C60.348 6.08482 59.2376 6.92895 57.951 7.26309L60.771 13.2072H59.2376C59.1143 13.2072 58.9733 13.1017 58.9204 12.9962L56.2414 7.35102H53.9854H53.4743C52.9808 7.35102 52.6106 7.21033 52.4872 6.87619ZM52.7869 5.83861H57.3518C58.092 5.83861 58.6913 5.24068 58.6913 4.50206V2.84896C58.6913 2.11034 58.092 1.51241 57.3518 1.51241H52.7869C52.593 1.51241 52.452 1.67069 52.452 1.84655V5.50447C52.452 5.69792 52.6106 5.83861 52.7869 5.83861ZM71.205 0H72.756L70.0594 6.84102C69.8655 7.36861 69.4425 7.84343 68.7551 7.84343H67.962V12.9786C67.962 13.1017 67.8563 13.2072 67.7329 13.2072H66.2876V7.84343L65.5826 7.82585C64.8248 7.82585 64.3841 7.36861 64.1903 6.84102L61.4936 0H63.0446C63.168 0 63.309 0.105517 63.3619 0.211034L65.565 5.96171C65.6355 6.13757 65.847 6.27826 66.0233 6.27826H68.2264C68.4026 6.27826 68.6141 6.13757 68.6846 5.96171L70.8878 0.211034C70.9406 0.105517 71.0816 0 71.205 0Z" fill="white"/>
</svg>
