<svg width="265" height="40" viewBox="0 0 265 40" fill="none" xmlns="http://www.w3.org/2000/svg">
<path d="M0 39.4193V0H13.6109C21.1085 0 25.261 4.54616 25.261 10.1857C25.261 13.6385 23.3001 17.1488 19.955 18.8177C25.1456 19.6809 27.9716 23.594 27.9716 28.0826C27.9716 34.5278 23.2424 39.4193 16.5523 39.4193H0ZM13.784 2.81977H3.05669V17.8969H13.5533C19.4359 17.8969 22.2043 14.4441 22.2043 10.3583C22.2043 6.27255 19.3206 2.81977 13.784 2.81977ZM16.3793 20.7167H3.05669V36.5995H16.1486C22.2043 36.5995 24.9149 32.7439 24.9149 28.3128C24.9149 24.227 22.0889 20.7167 16.3793 20.7167ZM45.6774 10.1857C54.04 10.1857 60.4994 16.6309 60.4994 24.9751C60.4994 33.3769 54.04 39.8221 45.6774 39.8221C37.257 39.8221 30.7976 33.3769 30.7976 24.9751C30.7976 16.6309 37.257 10.1857 45.6774 10.1857ZM45.6774 12.8904C38.7565 12.8904 33.6236 18.1847 33.6236 25.0327C33.6236 31.8231 38.7565 37.1174 45.6774 37.1174C52.5405 37.1174 57.6734 31.8231 57.6734 25.0327C57.6734 18.1847 52.5405 12.8904 45.6774 12.8904ZM78.2628 10.1857C86.6255 10.1857 93.0849 16.6309 93.0849 24.9751C93.0849 33.3769 86.6255 39.8221 78.2628 39.8221C69.8425 39.8221 63.3831 33.3769 63.3831 24.9751C63.3831 16.6309 69.8425 10.1857 78.2628 10.1857ZM78.2628 12.8904C71.342 12.8904 66.2091 18.1847 66.2091 25.0327C66.2091 31.8231 71.342 37.1174 78.2628 37.1174C85.126 37.1174 90.2589 31.8231 90.2589 25.0327C90.2589 18.1847 85.126 12.8904 78.2628 12.8904ZM99.6597 24.6874L112.636 10.6461H116.097L102.659 25.0902L118.634 39.4193H114.655L99.6597 25.9534V39.4193H96.8337V0H99.6597V24.6874ZM155.603 39.4193L145.452 4.7188L135.36 39.4193H132.072L120.941 0H124.056L133.86 35.1608L144.011 0H147.183L157.333 35.1033L167.138 0H170.194L158.89 39.4193H155.603ZM187.669 10.1857C196.032 10.1857 202.491 16.6309 202.491 24.9751C202.491 33.3769 196.032 39.8221 187.669 39.8221C179.249 39.8221 172.79 33.3769 172.79 24.9751C172.79 16.6309 179.249 10.1857 187.669 10.1857ZM187.669 12.8904C180.749 12.8904 175.616 18.1847 175.616 25.0327C175.616 31.8231 180.749 37.1174 187.669 37.1174C194.532 37.1174 199.665 31.8231 199.665 25.0327C199.665 18.1847 194.532 12.8904 187.669 12.8904ZM218.698 10.1857V13.2932C213.161 13.2932 209.066 17.4941 209.066 23.7667V39.4193H206.24V10.6461H209.066V15.9979C210.162 13.8111 213.276 10.1857 218.698 10.1857ZM225.272 10.6461V14.847C226.657 12.4876 229.598 10.1857 234.327 10.1857C238.768 10.1857 242.171 12.3725 243.786 15.9979C245.343 13.063 248.515 10.1857 253.878 10.1857C260.223 10.1857 264.375 14.5592 264.375 21.3497V39.4193H261.549V21.5799C261.549 16.113 258.55 12.8904 253.59 12.8904C248.399 12.8904 244.824 16.2281 244.824 21.9252V39.4193H241.998V21.5799C241.998 16.113 238.999 12.8904 234.039 12.8904C228.733 12.8904 225.272 16.4007 225.272 22.328V39.4193H222.446V10.6461H225.272Z" fill="white"/>
</svg>
